<?xml version="1.0" encoding="UTF-8" standalone="no"?>
<!DOCTYPE svg PUBLIC "-//W3C//DTD SVG 1.1//EN"
 "http://www.w3.org/Graphics/SVG/1.1/DTD/svg11.dtd">
<!-- Generated by graphviz version 2.44.0 (0)
 -->
<!-- Title: packages Pages: 1 -->
<svg width="5661pt" height="116pt"
 viewBox="0.00 0.00 5661.00 116.00" xmlns="http://www.w3.org/2000/svg" xmlns:xlink="http://www.w3.org/1999/xlink">
<g id="graph0" class="graph" transform="scale(1 1) rotate(0) translate(4 112)">
<title>packages</title>
<polygon fill="white" stroke="transparent" points="-4,4 -4,-112 5657,-112 5657,4 -4,4"/>
<!-- 0 -->
<g id="node1" class="node">
<title>0</title>
<polygon fill="none" stroke="black" points="104,-36 0,-36 0,0 104,0 104,-36"/>
<text text-anchor="middle" x="52" y="-14.3" font-family="Times-Roman" font-size="14.00">rdiff_backup</text>
</g>
<!-- 1 -->
<g id="node2" class="node">
<title>1</title>
<polygon fill="none" stroke="black" points="352,-36 122,-36 122,0 352,0 352,-36"/>
<text text-anchor="middle" x="237" y="-14.3" font-family="Times-Roman" font-size="14.00">rdiff_backup.FilenameMapping</text>
</g>
<!-- 2 -->
<g id="node3" class="node">
<title>2</title>
<polygon fill="none" stroke="black" points="529.5,-36 370.5,-36 370.5,0 529.5,0 529.5,-36"/>
<text text-anchor="middle" x="450" y="-14.3" font-family="Times-Roman" font-size="14.00">rdiff_backup.Globals</text>
</g>
<!-- 3 -->
<g id="node4" class="node">
<title>3</title>
<polygon fill="none" stroke="black" points="714.5,-36 547.5,-36 547.5,0 714.5,0 714.5,-36"/>
<text text-anchor="middle" x="631" y="-14.3" font-family="Times-Roman" font-size="14.00">rdiff_backup.Hardlink</text>
</g>
<!-- 4 -->
<g id="node5" class="node">
<title>4</title>
<polygon fill="none" stroke="black" points="873.5,-36 732.5,-36 732.5,0 873.5,0 873.5,-36"/>
<text text-anchor="middle" x="803" y="-14.3" font-family="Times-Roman" font-size="14.00">rdiff_backup.Main</text>
</g>
<!-- 19 -->
<g id="node20" class="node">
<title>19</title>
<polygon fill="none" stroke="black" points="1064.5,-108 935.5,-108 935.5,-72 1064.5,-72 1064.5,-108"/>
<text text-anchor="middle" x="1000" y="-86.3" font-family="Times-Roman" font-size="14.00">rdiff_backup.log</text>
</g>
<!-- 4&#45;&gt;19 -->
<g id="edge1" class="edge">
<title>4&#45;&gt;19</title>
<path fill="none" stroke="black" d="M850.94,-36.03C878.47,-45.81 913.22,-58.16 942.24,-68.48"/>
<polygon fill="black" stroke="black" points="951.85,-71.89 940.92,-72.78 947.13,-70.22 942.42,-68.54 942.42,-68.54 942.42,-68.54 947.13,-70.22 943.93,-64.3 951.85,-71.89 951.85,-71.89"/>
</g>
<!-- 5 -->
<g id="node6" class="node">
<title>5</title>
<polygon fill="none" stroke="black" points="1449.5,-36 1308.5,-36 1308.5,0 1449.5,0 1449.5,-36"/>
<text text-anchor="middle" x="1379" y="-14.3" font-family="Times-Roman" font-size="14.00">rdiff_backup.Rdiff</text>
</g>
<!-- 6 -->
<g id="node7" class="node">
<title>6</title>
<polygon fill="none" stroke="black" points="1632.5,-36 1467.5,-36 1467.5,0 1632.5,0 1632.5,-36"/>
<text text-anchor="middle" x="1550" y="-14.3" font-family="Times-Roman" font-size="14.00">rdiff_backup.Security</text>
</g>
<!-- 7 -->
<g id="node8" class="node">
<title>7</title>
<polygon fill="none" stroke="black" points="1108,-36 892,-36 892,0 1108,0 1108,-36"/>
<text text-anchor="middle" x="1000" y="-14.3" font-family="Times-Roman" font-size="14.00">rdiff_backup.SetConnections</text>
</g>
<!-- 7&#45;&gt;19 -->
<g id="edge2" class="edge">
<title>7&#45;&gt;19</title>
<path fill="none" stroke="black" d="M1000,-36.3C1000,-44.02 1000,-53.29 1000,-61.89"/>
<polygon fill="black" stroke="black" points="1000,-71.9 995.5,-61.9 1000,-66.9 1000,-61.9 1000,-61.9 1000,-61.9 1000,-66.9 1004.5,-61.9 1000,-71.9 1000,-71.9"/>
</g>
<!-- 8 -->
<g id="node9" class="node">
<title>8</title>
<polygon fill="none" stroke="black" points="1819.5,-36 1650.5,-36 1650.5,0 1819.5,0 1819.5,-36"/>
<text text-anchor="middle" x="1735" y="-14.3" font-family="Times-Roman" font-size="14.00">rdiff_backup.TempFile</text>
</g>
<!-- 9 -->
<g id="node10" class="node">
<title>9</title>
<polygon fill="none" stroke="black" points="1980,-36 1838,-36 1838,0 1980,0 1980,-36"/>
<text text-anchor="middle" x="1909" y="-14.3" font-family="Times-Roman" font-size="14.00">rdiff_backup.Time</text>
</g>
<!-- 10 -->
<g id="node11" class="node">
<title>10</title>
<polygon fill="none" stroke="black" points="2157.5,-36 1998.5,-36 1998.5,0 2157.5,0 2157.5,-36"/>
<text text-anchor="middle" x="2078" y="-14.3" font-family="Times-Roman" font-size="14.00">rdiff_backup.backup</text>
</g>
<!-- 11 -->
<g id="node12" class="node">
<title>11</title>
<polygon fill="none" stroke="black" points="2344,-36 2176,-36 2176,0 2344,0 2344,-36"/>
<text text-anchor="middle" x="2260" y="-14.3" font-family="Times-Roman" font-size="14.00">rdiff_backup.compare</text>
</g>
<!-- 12 -->
<g id="node13" class="node">
<title>12</title>
<polygon fill="none" stroke="black" points="2546,-36 2362,-36 2362,0 2546,0 2546,-36"/>
<text text-anchor="middle" x="2454" y="-14.3" font-family="Times-Roman" font-size="14.00">rdiff_backup.connection</text>
</g>
<!-- 13 -->
<g id="node14" class="node">
<title>13</title>
<polygon fill="none" stroke="black" points="2730,-36 2564,-36 2564,0 2730,0 2730,-36"/>
<text text-anchor="middle" x="2647" y="-14.3" font-family="Times-Roman" font-size="14.00">rdiff_backup.eas_acls</text>
</g>
<!-- 14 -->
<g id="node15" class="node">
<title>14</title>
<polygon fill="none" stroke="black" points="2929.5,-36 2748.5,-36 2748.5,0 2929.5,0 2929.5,-36"/>
<text text-anchor="middle" x="2839" y="-14.3" font-family="Times-Roman" font-size="14.00">rdiff_backup.fs_abilities</text>
</g>
<!-- 15 -->
<g id="node16" class="node">
<title>15</title>
<polygon fill="none" stroke="black" points="3090,-36 2948,-36 2948,0 3090,0 3090,-36"/>
<text text-anchor="middle" x="3019" y="-14.3" font-family="Times-Roman" font-size="14.00">rdiff_backup.hash</text>
</g>
<!-- 16 -->
<g id="node17" class="node">
<title>16</title>
<polygon fill="none" stroke="black" points="3286,-36 3108,-36 3108,0 3286,0 3286,-36"/>
<text text-anchor="middle" x="3197" y="-14.3" font-family="Times-Roman" font-size="14.00">rdiff_backup.increment</text>
</g>
<!-- 17 -->
<g id="node18" class="node">
<title>17</title>
<polygon fill="none" stroke="black" points="3456,-36 3304,-36 3304,0 3456,0 3456,-36"/>
<text text-anchor="middle" x="3380" y="-14.3" font-family="Times-Roman" font-size="14.00">rdiff_backup.iterfile</text>
</g>
<!-- 18 -->
<g id="node19" class="node">
<title>18</title>
<polygon fill="none" stroke="black" points="3637.5,-36 3474.5,-36 3474.5,0 3637.5,0 3637.5,-36"/>
<text text-anchor="middle" x="3556" y="-14.3" font-family="Times-Roman" font-size="14.00">rdiff_backup.librsync</text>
</g>
<!-- 20 -->
<g id="node21" class="node">
<title>20</title>
<polygon fill="none" stroke="black" points="3832.5,-36 3655.5,-36 3655.5,0 3832.5,0 3832.5,-36"/>
<text text-anchor="middle" x="3744" y="-14.3" font-family="Times-Roman" font-size="14.00">rdiff_backup.longname</text>
</g>
<!-- 21 -->
<g id="node22" class="node">
<title>21</title>
<polygon fill="none" stroke="black" points="1290,-36 1126,-36 1126,0 1290,0 1290,-36"/>
<text text-anchor="middle" x="1208" y="-14.3" font-family="Times-Roman" font-size="14.00">rdiff_backup.manage</text>
</g>
<!-- 21&#45;&gt;19 -->
<g id="edge3" class="edge">
<title>21&#45;&gt;19</title>
<path fill="none" stroke="black" d="M1157.38,-36.03C1128.19,-45.86 1091.31,-58.27 1060.58,-68.61"/>
<polygon fill="black" stroke="black" points="1050.84,-71.89 1058.89,-64.43 1055.58,-70.29 1060.32,-68.7 1060.32,-68.7 1060.32,-68.7 1055.58,-70.29 1061.76,-72.96 1050.84,-71.89 1050.84,-71.89"/>
</g>
<!-- 22 -->
<g id="node23" class="node">
<title>22</title>
<polygon fill="none" stroke="black" points="4025,-36 3851,-36 3851,0 4025,0 4025,-36"/>
<text text-anchor="middle" x="3938" y="-14.3" font-family="Times-Roman" font-size="14.00">rdiff_backup.metadata</text>
</g>
<!-- 23 -->
<g id="node24" class="node">
<title>23</title>
<polygon fill="none" stroke="black" points="4202.5,-36 4043.5,-36 4043.5,0 4202.5,0 4202.5,-36"/>
<text text-anchor="middle" x="4123" y="-14.3" font-family="Times-Roman" font-size="14.00">rdiff_backup.regress</text>
</g>
<!-- 24 -->
<g id="node25" class="node">
<title>24</title>
<polygon fill="none" stroke="black" points="4377,-36 4221,-36 4221,0 4377,0 4377,-36"/>
<text text-anchor="middle" x="4299" y="-14.3" font-family="Times-Roman" font-size="14.00">rdiff_backup.restore</text>
</g>
<!-- 25 -->
<g id="node26" class="node">
<title>25</title>
<polygon fill="none" stroke="black" points="4547,-36 4395,-36 4395,0 4547,0 4547,-36"/>
<text text-anchor="middle" x="4471" y="-14.3" font-family="Times-Roman" font-size="14.00">rdiff_backup.robust</text>
</g>
<!-- 26 -->
<g id="node27" class="node">
<title>26</title>
<polygon fill="none" stroke="black" points="4725,-36 4565,-36 4565,0 4725,0 4725,-36"/>
<text text-anchor="middle" x="4645" y="-14.3" font-family="Times-Roman" font-size="14.00">rdiff_backup.rorpiter</text>
</g>
<!-- 27 -->
<g id="node28" class="node">
<title>27</title>
<polygon fill="none" stroke="black" points="4889,-36 4743,-36 4743,0 4889,0 4889,-36"/>
<text text-anchor="middle" x="4816" y="-14.3" font-family="Times-Roman" font-size="14.00">rdiff_backup.rpath</text>
</g>
<!-- 28 -->
<g id="node29" class="node">
<title>28</title>
<polygon fill="none" stroke="black" points="5077,-36 4907,-36 4907,0 5077,0 5077,-36"/>
<text text-anchor="middle" x="4992" y="-14.3" font-family="Times-Roman" font-size="14.00">rdiff_backup.selection</text>
</g>
<!-- 29 -->
<g id="node30" class="node">
<title>29</title>
<polygon fill="none" stroke="black" points="5265,-36 5095,-36 5095,0 5265,0 5265,-36"/>
<text text-anchor="middle" x="5180" y="-14.3" font-family="Times-Roman" font-size="14.00">rdiff_backup.statistics</text>
</g>
<!-- 30 -->
<g id="node31" class="node">
<title>30</title>
<polygon fill="none" stroke="black" points="5469,-36 5283,-36 5283,0 5469,0 5469,-36"/>
<text text-anchor="middle" x="5376" y="-14.3" font-family="Times-Roman" font-size="14.00">rdiff_backup.user_group</text>
</g>
<!-- 31 -->
<g id="node32" class="node">
<title>31</title>
<polygon fill="none" stroke="black" points="5653,-36 5487,-36 5487,0 5653,0 5653,-36"/>
<text text-anchor="middle" x="5570" y="-14.3" font-family="Times-Roman" font-size="14.00">rdiff_backup.win_acls</text>
</g>
</g>
</svg>
