<?xml version="1.0" encoding="UTF-8" standalone="no"?>
<!-- Created with Inkscape (http://www.inkscape.org/) -->

<svg
   xmlns:dc="http://purl.org/dc/elements/1.1/"
   xmlns:cc="http://creativecommons.org/ns#"
   xmlns:rdf="http://www.w3.org/1999/02/22-rdf-syntax-ns#"
   xmlns:svg="http://www.w3.org/2000/svg"
   xmlns="http://www.w3.org/2000/svg"
   xmlns:sodipodi="http://sodipodi.sourceforge.net/DTD/sodipodi-0.dtd"
   xmlns:inkscape="http://www.inkscape.org/namespaces/inkscape"
   version="1.1"
   id="svg2"
   xml:space="preserve"
   width="628"
   height="424"
   viewBox="0 0 628 424"
   sodipodi:docname="logo-RdiffBackup-A.svg"
   inkscape:version="0.92.4 (5da689c313, 2019-01-14)"><metadata
     id="metadata8"><rdf:RDF><cc:Work
         rdf:about=""><dc:format>image/svg+xml</dc:format><dc:type
           rdf:resource="http://purl.org/dc/dcmitype/StillImage" /><dc:title></dc:title></cc:Work></rdf:RDF></metadata><defs
     id="defs6"><clipPath
       clipPathUnits="userSpaceOnUse"
       id="clipPath22"><path
         d="M 0,612 H 792 V 0 H 0 Z"
         id="path20"
         inkscape:connector-curvature="0" /></clipPath></defs><sodipodi:namedview
     pagecolor="#ffffff"
     bordercolor="#666666"
     borderopacity="1"
     objecttolerance="10"
     gridtolerance="10"
     guidetolerance="10"
     inkscape:pageopacity="0"
     inkscape:pageshadow="2"
     inkscape:window-width="1920"
     inkscape:window-height="1016"
     id="namedview4"
     showgrid="false"
     inkscape:zoom="0.57843137"
     inkscape:cx="371.14018"
     inkscape:cy="288.72959"
     inkscape:window-x="0"
     inkscape:window-y="27"
     inkscape:window-maximized="1"
     inkscape:current-layer="g10"
     fit-margin-top="0"
     fit-margin-left="0"
     fit-margin-right="0"
     fit-margin-bottom="0" /><g
     id="g10"
     inkscape:groupmode="layer"
     inkscape:label="logo RdiffBackup-A"
     transform="matrix(1.3333333,0,0,-1.3333333,-213.99093,645.04427)"><g
       id="g1293"
       transform="matrix(0.99929927,0,0,1.0011414,0.11246216,-0.18922946)"><path
         d="m 259.3506,376.4272 v -10"
         style="fill:none;stroke:#37b34a;stroke-width:20;stroke-linecap:butt;stroke-linejoin:round;stroke-miterlimit:4;stroke-dasharray:none;stroke-opacity:1"
         id="path30"
         inkscape:connector-curvature="0" /><path
         d="m 356.4932,380.855 c 0,3.313 -2.686,6 -6,6 h -184 c -3.313,0 -6,-2.687 -6,-6 v -23.143 h 196 z"
         style="fill:#37b34a;fill-opacity:1;fill-rule:nonzero;stroke:none"
         id="path34"
         inkscape:connector-curvature="0" /><path
         d="m 160.4932,357.7119 v -108.86 c 0,-3.315 2.687,-6 6,-6 h 184 c 3.314,0 6,2.685 6,6 v 108.86 z"
         style="fill:#006fa0;fill-opacity:1;fill-rule:nonzero;stroke:none"
         id="path38"
         inkscape:connector-curvature="0" /><path
         d="m 336.7012,321.228 h -156.416 c -1.657,0 -3,1.343 -3,3 v 43.665 c 0,1.656 1.343,3 3,3 h 156.416 c 1.657,0 3,-1.344 3,-3 v -43.665 c 0,-1.657 -1.343,-3 -3,-3"
         style="fill:#ffffff;fill-opacity:1;fill-rule:nonzero;stroke:none"
         id="path42"
         inkscape:connector-curvature="0" /><path
         inkscape:connector-curvature="0"
         id="path44"
         style="fill:#003058;fill-opacity:1;fill-rule:nonzero;stroke:none"
         d="m 282.978,343.711 h -93.289 v 4.698 h 93.289 z" /><path
         d="m 302.4404,346.0601 c 0,-2.224 -1.803,-4.027 -4.027,-4.027 -2.223,0 -4.027,1.803 -4.027,4.027 0,2.224 1.804,4.027 4.027,4.027 2.224,0 4.027,-1.803 4.027,-4.027"
         style="fill:#003058;fill-opacity:1;fill-rule:nonzero;stroke:none"
         id="path48"
         inkscape:connector-curvature="0" /><path
         d="m 314.8691,346.0601 c 0,-2.224 -1.803,-4.027 -4.027,-4.027 -2.224,0 -4.027,1.803 -4.027,4.027 0,2.224 1.803,4.027 4.027,4.027 2.224,0 4.027,-1.803 4.027,-4.027"
         style="fill:#003058;fill-opacity:1;fill-rule:nonzero;stroke:none"
         id="path52"
         inkscape:connector-curvature="0" /><path
         d="m 327.2979,346.0601 c 0,-2.224 -1.803,-4.027 -4.027,-4.027 -2.224,0 -4.027,1.803 -4.027,4.027 0,2.224 1.803,4.027 4.027,4.027 2.224,0 4.027,-1.803 4.027,-4.027"
         style="fill:#003058;fill-opacity:1;fill-rule:nonzero;stroke:none"
         id="path56"
         inkscape:connector-curvature="0" /><path
         d="m 336.7012,260.0225 h -156.416 c -1.657,0 -3,1.344 -3,3 v 43.665 c 0,1.657 1.343,3 3,3 h 156.416 c 1.657,0 3,-1.343 3,-3 v -43.665 c 0,-1.656 -1.343,-3 -3,-3"
         style="fill:#ffffff;fill-opacity:1;fill-rule:nonzero;stroke:none"
         id="path60"
         inkscape:connector-curvature="0" /><path
         inkscape:connector-curvature="0"
         id="path62"
         style="fill:#003058;fill-opacity:1;fill-rule:nonzero;stroke:none"
         d="m 282.978,282.506 h -93.289 v 4.698 h 93.289 z" /><path
         d="m 302.4404,284.8545 c 0,-2.224 -1.803,-4.026 -4.027,-4.026 -2.223,0 -4.027,1.802 -4.027,4.026 0,2.225 1.804,4.027 4.027,4.027 2.224,0 4.027,-1.802 4.027,-4.027"
         style="fill:#003058;fill-opacity:1;fill-rule:nonzero;stroke:none"
         id="path66"
         inkscape:connector-curvature="0" /><path
         d="m 314.8691,284.8545 c 0,-2.224 -1.803,-4.026 -4.027,-4.026 -2.224,0 -4.027,1.802 -4.027,4.026 0,2.225 1.803,4.027 4.027,4.027 2.224,0 4.027,-1.802 4.027,-4.027"
         style="fill:#003058;fill-opacity:1;fill-rule:nonzero;stroke:none"
         id="path70"
         inkscape:connector-curvature="0" /><path
         d="m 327.2979,284.8545 c 0,-2.224 -1.803,-4.026 -4.027,-4.026 -2.224,0 -4.027,1.802 -4.027,4.026 0,2.225 1.803,4.027 4.027,4.027 2.224,0 4.027,-1.802 4.027,-4.027"
         style="fill:#003058;fill-opacity:1;fill-rule:nonzero;stroke:none"
         id="path74"
         inkscape:connector-curvature="0" /></g><g
       id="g1307"
       transform="matrix(0.99929927,0,0,1.0011414,0.11246216,-0.18922946)"><path
         d="m 533.4902,381.4268 v 10"
         style="fill:none;stroke:#37b34a;stroke-width:20;stroke-linecap:butt;stroke-linejoin:round;stroke-miterlimit:4;stroke-dasharray:none;stroke-opacity:1"
         id="path14"
         inkscape:connector-curvature="0" /><path
         d="m 625.4902,242.8516 h -184 c -3.313,0 -6,2.686 -6,6 v 132.003 c 0,3.314 2.687,6 6,6 h 184 c 3.314,0 6,-2.686 6,-6 v -132.003 c 0,-3.314 -2.686,-6 -6,-6"
         style="fill:#006fa0;fill-opacity:1;fill-rule:nonzero;stroke:none"
         id="path78"
         inkscape:connector-curvature="0" /><path
         d="m 611.6982,321.228 h -156.416 c -1.656,0 -3,1.343 -3,3 v 43.665 c 0,1.656 1.344,3 3,3 h 156.416 c 1.657,0 3,-1.344 3,-3 v -43.665 c 0,-1.657 -1.343,-3 -3,-3"
         style="fill:#ffffff;fill-opacity:1;fill-rule:nonzero;stroke:none"
         id="path82"
         inkscape:connector-curvature="0" /><path
         inkscape:connector-curvature="0"
         id="path84"
         style="fill:#003058;fill-opacity:1;fill-rule:nonzero;stroke:none"
         d="m 557.975,343.711 h -93.288 v 4.698 h 93.288 z" /><path
         d="m 577.4375,346.0601 c 0,-2.224 -1.803,-4.027 -4.026,-4.027 -2.225,0 -4.028,1.803 -4.028,4.027 0,2.224 1.803,4.027 4.028,4.027 2.223,0 4.026,-1.803 4.026,-4.027"
         style="fill:#003058;fill-opacity:1;fill-rule:nonzero;stroke:none"
         id="path88"
         inkscape:connector-curvature="0" /><path
         d="m 589.8662,346.0601 c 0,-2.224 -1.803,-4.027 -4.026,-4.027 -2.225,0 -4.028,1.803 -4.028,4.027 0,2.224 1.803,4.027 4.028,4.027 2.223,0 4.026,-1.803 4.026,-4.027"
         style="fill:#003058;fill-opacity:1;fill-rule:nonzero;stroke:none"
         id="path92"
         inkscape:connector-curvature="0" /><path
         d="m 602.2949,346.0601 c 0,-2.224 -1.803,-4.027 -4.026,-4.027 -2.225,0 -4.028,1.803 -4.028,4.027 0,2.224 1.803,4.027 4.028,4.027 2.223,0 4.026,-1.803 4.026,-4.027"
         style="fill:#003058;fill-opacity:1;fill-rule:nonzero;stroke:none"
         id="path96"
         inkscape:connector-curvature="0" /><path
         d="m 611.6982,260.0225 h -156.416 c -1.656,0 -3,1.344 -3,3 v 43.665 c 0,1.657 1.344,3 3,3 h 156.416 c 1.657,0 3,-1.343 3,-3 v -43.665 c 0,-1.656 -1.343,-3 -3,-3"
         style="fill:#ffffff;fill-opacity:1;fill-rule:nonzero;stroke:none"
         id="path100"
         inkscape:connector-curvature="0" /><path
         inkscape:connector-curvature="0"
         id="path102"
         style="fill:#003058;fill-opacity:1;fill-rule:nonzero;stroke:none"
         d="m 557.975,282.506 h -93.288 v 4.698 h 93.288 z" /><path
         d="m 577.4375,284.8545 c 0,-2.224 -1.803,-4.026 -4.026,-4.026 -2.225,0 -4.028,1.802 -4.028,4.026 0,2.225 1.803,4.027 4.028,4.027 2.223,0 4.026,-1.802 4.026,-4.027"
         style="fill:#003058;fill-opacity:1;fill-rule:nonzero;stroke:none"
         id="path106"
         inkscape:connector-curvature="0" /><path
         d="m 589.8662,284.8545 c 0,-2.224 -1.803,-4.026 -4.026,-4.026 -2.225,0 -4.028,1.802 -4.028,4.026 0,2.225 1.803,4.027 4.028,4.027 2.223,0 4.026,-1.802 4.026,-4.027"
         style="fill:#003058;fill-opacity:1;fill-rule:nonzero;stroke:none"
         id="path110"
         inkscape:connector-curvature="0" /><path
         d="m 602.2949,284.8545 c 0,-2.224 -1.803,-4.026 -4.026,-4.026 -2.225,0 -4.028,1.802 -4.028,4.026 0,2.225 1.803,4.027 4.028,4.027 2.223,0 4.026,-1.802 4.026,-4.027"
         style="fill:#003058;fill-opacity:1;fill-rule:nonzero;stroke:none"
         id="path114"
         inkscape:connector-curvature="0" /></g><g
       id="g1312"
       transform="matrix(0.99929927,0,0,1.0011414,0.11246216,-0.18922946)"><path
         d="m 533.4902,401.4253 v 45.001 c 0,14.912 -12.088,27 -27,27 h -220.14 c -14.911,0 -27,-12.088 -27,-27 v -65"
         style="fill:none;stroke:#37b34a;stroke-width:20;stroke-linecap:butt;stroke-linejoin:round;stroke-miterlimit:4;stroke-dasharray:19.997, 9.999;stroke-dashoffset:0;stroke-opacity:1"
         id="path26"
         inkscape:connector-curvature="0" /><path
         d="m 571.2051,415.998 c 0,-20.829 -16.886,-37.714 -37.715,-37.714 -20.829,0 -37.714,16.885 -37.714,37.714 0,20.829 16.885,37.714 37.714,37.714 20.829,0 37.715,-16.885 37.715,-37.714"
         style="fill:#003058;fill-opacity:1;fill-rule:nonzero;stroke:none"
         id="path118"
         inkscape:connector-curvature="0" /><path
         d="m 543.4902,414.9351 v 29.598 h -20 v -29.598 h -16.266 l 26.266,-27.472 26.266,27.472 z"
         style="fill:#37b34a;fill-opacity:1;fill-rule:nonzero;stroke:none"
         id="path122"
         inkscape:connector-curvature="0" /></g><g
       id="g1320"
       transform="matrix(0.99929927,0,0,1.0011414,0.11246216,-0.18922946)"><text
         y="-166.8877"
         x="157.1274"
         id="text126"
         style="font-variant:normal;font-weight:500;font-stretch:normal;font-size:78px;font-family:'Kanit Medium';-inkscape-font-specification:Kanit-Medium;writing-mode:lr-tb;fill:#003058;fill-opacity:1;fill-rule:nonzero;stroke:none"
         transform="scale(1,-1)"><tspan
           id="tspan124"
           y="-166.8877"
           x="157.1274">R</tspan></text>
<text
         y="-166.8877"
         x="206.1114"
         id="text130"
         style="font-style:italic;font-variant:normal;font-weight:500;font-stretch:normal;font-size:78px;font-family:'Kanit Medium';-inkscape-font-specification:Kanit-MediumItalic;writing-mode:lr-tb;fill:#37b34a;fill-opacity:1;fill-rule:nonzero;stroke:none"
         transform="scale(1,-1)"><tspan
           id="tspan128"
           sodipodi:role="line"
           y="-166.8877"
           x="206.1114 252.91139 278.7294 303.61139">diff</tspan></text>
<text
         y="-166.8877"
         x="337.69739"
         id="text134"
         style="font-variant:normal;font-weight:500;font-stretch:normal;font-size:78px;font-family:'Kanit Medium';-inkscape-font-specification:Kanit-Medium;writing-mode:lr-tb;fill:#003058;fill-opacity:1;fill-rule:nonzero;stroke:none"
         transform="scale(1,-1)"><tspan
           id="tspan132"
           sodipodi:role="line"
           y="-166.8877"
           x="337.69739 383.01541 435.11938 482.6994 533.71143 587.45337">BACKUP</tspan></text>
</g></g></svg>