<?xml version="1.0" encoding="UTF-8" standalone="no"?>
<!-- Created with Inkscape (http://www.inkscape.org/) -->

<svg
   xmlns:dc="http://purl.org/dc/elements/1.1/"
   xmlns:cc="http://creativecommons.org/ns#"
   xmlns:rdf="http://www.w3.org/1999/02/22-rdf-syntax-ns#"
   xmlns:svg="http://www.w3.org/2000/svg"
   xmlns="http://www.w3.org/2000/svg"
   xmlns:sodipodi="http://sodipodi.sourceforge.net/DTD/sodipodi-0.dtd"
   xmlns:inkscape="http://www.inkscape.org/namespaces/inkscape"
   version="1.1"
   id="svg2"
   xml:space="preserve"
   width="32"
   height="32"
   viewBox="0 0 32 32"
   sodipodi:docname="logo-RdiffBackup-B.svg"
   inkscape:version="0.92.4 (5da689c313, 2019-01-14)"
   inkscape:export-filename="/home/ikus060/Downloads/LOGO/logo RdiffBackup-B.png"
   inkscape:export-xdpi="96"
   inkscape:export-ydpi="96"><metadata
     id="metadata8"><rdf:RDF><cc:Work
         rdf:about=""><dc:format>image/svg+xml</dc:format><dc:type
           rdf:resource="http://purl.org/dc/dcmitype/StillImage" /><dc:title></dc:title></cc:Work></rdf:RDF></metadata><defs
     id="defs6"><clipPath
       clipPathUnits="userSpaceOnUse"
       id="clipPath18"><path
         d="M 0,32 H 32 V 0 H 0 Z"
         id="path16"
         inkscape:connector-curvature="0" /></clipPath></defs><sodipodi:namedview
     pagecolor="#ffffff"
     bordercolor="#666666"
     borderopacity="1"
     objecttolerance="10"
     gridtolerance="10"
     guidetolerance="10"
     inkscape:pageopacity="0"
     inkscape:pageshadow="2"
     inkscape:window-width="1920"
     inkscape:window-height="1016"
     id="namedview4"
     showgrid="false"
     inkscape:zoom="11.313709"
     inkscape:cx="35.194376"
     inkscape:cy="23.137572"
     inkscape:window-x="0"
     inkscape:window-y="27"
     inkscape:window-maximized="1"
     inkscape:current-layer="g10" /><g
     id="g10"
     inkscape:groupmode="layer"
     inkscape:label="logo RdiffBackup-B"
     transform="matrix(1.3333333,0,0,-1.3333333,0,31.999999)"><g
       id="g1421"
       transform="matrix(0.79324441,0,0,0.79324441,-0.69190714,-2.1400138)"><g
         id="g1342"><g
           transform="translate(13.414917,27.064304)"
           id="g1283"><path
             style="fill:#37b34a;fill-opacity:1;fill-rule:nonzero;stroke:none;stroke-width:1.33333325"
             d="m -18.275391,-1.3300781 c -0.384,0 -0.697265,0.3132656 -0.697265,0.6972656 V 2.0488281 21.625 c 0,0.384 0.311312,0.695312 0.695312,0.695312 H -2.9453125 C -2.5613125,22.320312 -2.25,22.009 -2.25,21.625 V 2.0488281 -0.6328125 c 0,-0.384 -0.3093594,-0.6972656 -0.6933594,-0.6972656 z"
             transform="matrix(0.75000002,0,0,-0.75000002,1.686825,-0.47507015)"
             id="path1281"
             inkscape:connector-curvature="0" /></g><g
           id="g1310"
           transform="matrix(-1,0,0,1,0.87157498,27.064304)"
           style="fill:#006fa0;fill-opacity:1"><path
             inkscape:connector-curvature="0"
             id="path1308"
             transform="matrix(0.75000002,0,0,-0.75000002,1.686825,-0.47507015)"
             d="m -10.591775,-1.3300781 -0.002,23.6503901 h 7.6484155 C -2.5613125,22.320312 -2.25,22.009 -2.25,21.625 V 2.0488281 -0.6328125 c 0,-0.384 -0.3093594,-0.6972656 -0.6933594,-0.6972656 z"
             style="fill:#006fa0;fill-opacity:1;fill-rule:nonzero;stroke:none;stroke-width:1.33333325"
             sodipodi:nodetypes="ccsscssc" /></g></g><g
         transform="translate(11.6929,21.8799)"
         id="g72"><path
           inkscape:connector-curvature="0"
           id="path74"
           style="fill:#ffffff;fill-opacity:1;fill-rule:nonzero;stroke:none"
           d="m 0,0 h -9.1 c -0.144,0 -0.261,0.117 -0.261,0.261 v 3.796 c 0,0.144 0.117,0.261 0.261,0.261 H 0 c 0.144,0 0.261,-0.117 0.261,-0.261 V 0.261 C 0.261,0.117 0.144,0 0,0" /></g><path
         inkscape:connector-curvature="0"
         id="path76"
         style="fill:#003058;fill-opacity:1;fill-rule:nonzero;stroke:none"
         d="M 7.022,23.834 H 3.41 v 0.409 h 3.612 z" /><g
         transform="translate(8.7139,24.0386)"
         id="g78"><path
           inkscape:connector-curvature="0"
           id="path80"
           style="fill:#003058;fill-opacity:1;fill-rule:nonzero;stroke:none"
           d="m 0,0 c 0,-0.193 -0.157,-0.35 -0.35,-0.35 -0.193,0 -0.35,0.157 -0.35,0.35 0,0.193 0.157,0.35 0.35,0.35 C -0.157,0.35 0,0.193 0,0" /></g><g
         transform="translate(9.7944,24.0386)"
         id="g82"><path
           inkscape:connector-curvature="0"
           id="path84"
           style="fill:#003058;fill-opacity:1;fill-rule:nonzero;stroke:none"
           d="m 0,0 c 0,-0.193 -0.157,-0.35 -0.35,-0.35 -0.193,0 -0.35,0.157 -0.35,0.35 0,0.193 0.157,0.35 0.35,0.35 C -0.157,0.35 0,0.193 0,0" /></g><g
         transform="translate(10.8755,24.0386)"
         id="g86"><path
           inkscape:connector-curvature="0"
           id="path88"
           style="fill:#003058;fill-opacity:1;fill-rule:nonzero;stroke:none"
           d="m 0,0 c 0,-0.193 -0.157,-0.35 -0.35,-0.35 -0.193,0 -0.35,0.157 -0.35,0.35 0,0.193 0.157,0.35 0.35,0.35 C -0.157,0.35 0,0.193 0,0" /></g><g
         transform="translate(11.6929,16.5581)"
         id="g90"><path
           inkscape:connector-curvature="0"
           id="path92"
           style="fill:#ffffff;fill-opacity:1;fill-rule:nonzero;stroke:none"
           d="m 0,0 h -9.1 c -0.144,0 -0.261,0.117 -0.261,0.261 v 3.796 c 0,0.144 0.117,0.261 0.261,0.261 H 0 c 0.144,0 0.261,-0.117 0.261,-0.261 V 0.261 C 0.261,0.117 0.144,0 0,0" /></g><path
         inkscape:connector-curvature="0"
         id="path94"
         style="fill:#003058;fill-opacity:1;fill-rule:nonzero;stroke:none"
         d="M 7.022,18.513 H 3.41 v 0.409 h 3.612 z" /><g
         transform="translate(8.7139,18.7173)"
         id="g96"><path
           inkscape:connector-curvature="0"
           id="path98"
           style="fill:#003058;fill-opacity:1;fill-rule:nonzero;stroke:none"
           d="m 0,0 c 0,-0.193 -0.157,-0.35 -0.35,-0.35 -0.193,0 -0.35,0.157 -0.35,0.35 0,0.193 0.157,0.35 0.35,0.35 C -0.157,0.35 0,0.193 0,0" /></g><g
         transform="translate(9.7944,18.7173)"
         id="g100"><path
           inkscape:connector-curvature="0"
           id="path102"
           style="fill:#003058;fill-opacity:1;fill-rule:nonzero;stroke:none"
           d="m 0,0 c 0,-0.193 -0.157,-0.35 -0.35,-0.35 -0.193,0 -0.35,0.157 -0.35,0.35 0,0.193 0.157,0.35 0.35,0.35 C -0.157,0.35 0,0.193 0,0" /></g><g
         transform="translate(10.8755,18.7173)"
         id="g104"><path
           inkscape:connector-curvature="0"
           id="path106"
           style="fill:#003058;fill-opacity:1;fill-rule:nonzero;stroke:none"
           d="m 0,0 c 0,-0.193 -0.157,-0.35 -0.35,-0.35 -0.193,0 -0.35,0.157 -0.35,0.35 0,0.193 0.157,0.35 0.35,0.35 C -0.157,0.35 0,0.193 0,0" /></g><g
         transform="translate(11.6929,11.2363)"
         id="g108"><path
           inkscape:connector-curvature="0"
           id="path110"
           style="fill:#ffffff;fill-opacity:1;fill-rule:nonzero;stroke:none"
           d="m 0,0 h -9.1 c -0.144,0 -0.261,0.117 -0.261,0.261 v 3.797 c 0,0.144 0.117,0.26 0.261,0.26 H 0 c 0.144,0 0.261,-0.116 0.261,-0.26 V 0.261 C 0.261,0.117 0.144,0 0,0" /></g><path
         inkscape:connector-curvature="0"
         id="path112"
         style="fill:#003058;fill-opacity:1;fill-rule:nonzero;stroke:none"
         d="M 7.022,13.191 H 3.41 v 0.408 h 3.612 z" /><g
         transform="translate(8.7139,13.3955)"
         id="g114"><path
           inkscape:connector-curvature="0"
           id="path116"
           style="fill:#003058;fill-opacity:1;fill-rule:nonzero;stroke:none"
           d="m 0,0 c 0,-0.193 -0.157,-0.35 -0.35,-0.35 -0.193,0 -0.35,0.157 -0.35,0.35 0,0.193 0.157,0.351 0.35,0.351 C -0.157,0.351 0,0.193 0,0" /></g><g
         transform="translate(9.7944,13.3955)"
         id="g118"><path
           inkscape:connector-curvature="0"
           id="path120"
           style="fill:#003058;fill-opacity:1;fill-rule:nonzero;stroke:none"
           d="m 0,0 c 0,-0.193 -0.157,-0.35 -0.35,-0.35 -0.193,0 -0.35,0.157 -0.35,0.35 0,0.193 0.157,0.351 0.35,0.351 C -0.157,0.351 0,0.193 0,0" /></g><g
         transform="translate(10.8755,13.3955)"
         id="g122"><path
           inkscape:connector-curvature="0"
           id="path124"
           style="fill:#003058;fill-opacity:1;fill-rule:nonzero;stroke:none"
           d="m 0,0 c 0,-0.193 -0.157,-0.35 -0.35,-0.35 -0.193,0 -0.35,0.157 -0.35,0.35 0,0.193 0.157,0.351 0.35,0.351 C -0.157,0.351 0,0.193 0,0" /></g></g><g
       id="g1443"
       transform="matrix(0.79324441,0,0,0.79324441,-0.69190714,-2.1400138)"><g
         transform="matrix(-1,0,0,1,80.458905,-5.3695919)"
         id="g1336"><g
           id="g1326"
           transform="translate(61.87383,32.433896)"><path
             inkscape:connector-curvature="0"
             id="path1324"
             transform="matrix(0.75000002,0,0,-0.75000002,1.686825,-0.47507015)"
             d="m -18.275391,-1.3300781 c -0.384,0 -0.697265,0.3132656 -0.697265,0.6972656 V 2.0488281 21.625 c 0,0.384 0.311312,0.695312 0.695312,0.695312 H -2.9453125 C -2.5613125,22.320312 -2.25,22.009 -2.25,21.625 V 2.0488281 -0.6328125 c 0,-0.384 -0.3093594,-0.6972656 -0.6933594,-0.6972656 z"
             style="fill:#37b34a;fill-opacity:1;fill-rule:nonzero;stroke:none;stroke-width:1.33333325" /></g><g
           style="fill:#006fa0;fill-opacity:1"
           transform="matrix(-1,0,0,1,49.330488,32.433896)"
           id="g1330"><path
             sodipodi:nodetypes="ccsscssc"
             style="fill:#006fa0;fill-opacity:1;fill-rule:nonzero;stroke:none;stroke-width:1.33333325"
             d="m -10.591775,-1.3300781 -0.002,23.6503901 h 7.6484155 C -2.5613125,22.320312 -2.25,22.009 -2.25,21.625 V 2.0488281 -0.6328125 c 0,-0.384 -0.3093594,-0.6972656 -0.6933594,-0.6972656 z"
             transform="matrix(0.75000002,0,0,-0.75000002,1.686825,-0.47507015)"
             id="path1328"
             inkscape:connector-curvature="0" /></g></g><path
         d="m 29.4072,21.8799 h -9.101 c -0.143,0 -0.26,0.117 -0.26,0.261 v 3.796 c 0,0.144 0.117,0.261 0.26,0.261 h 9.101 c 0.145,0 0.261,-0.117 0.261,-0.261 v -3.796 c 0,-0.144 -0.116,-0.261 -0.261,-0.261"
         style="fill:#ffffff;fill-opacity:1;fill-rule:nonzero;stroke:none"
         id="path136"
         inkscape:connector-curvature="0" /><path
         inkscape:connector-curvature="0"
         id="path138"
         style="fill:#003058;fill-opacity:1;fill-rule:nonzero;stroke:none"
         d="m 24.736,23.834 h -3.611 v 0.409 h 3.611 z" /><path
         d="m 26.4287,24.0386 c 0,-0.193 -0.157,-0.35 -0.351,-0.35 -0.193,0 -0.349,0.157 -0.349,0.35 0,0.193 0.156,0.35 0.349,0.35 0.194,0 0.351,-0.157 0.351,-0.35"
         style="fill:#003058;fill-opacity:1;fill-rule:nonzero;stroke:none"
         id="path142"
         inkscape:connector-curvature="0" /><path
         d="m 27.5088,24.0386 c 0,-0.193 -0.156,-0.35 -0.35,-0.35 -0.193,0 -0.35,0.157 -0.35,0.35 0,0.193 0.157,0.35 0.35,0.35 0.194,0 0.35,-0.157 0.35,-0.35"
         style="fill:#003058;fill-opacity:1;fill-rule:nonzero;stroke:none"
         id="path146"
         inkscape:connector-curvature="0" /><path
         d="m 28.5898,24.0386 c 0,-0.193 -0.157,-0.35 -0.351,-0.35 -0.193,0 -0.349,0.157 -0.349,0.35 0,0.193 0.156,0.35 0.349,0.35 0.194,0 0.351,-0.157 0.351,-0.35"
         style="fill:#003058;fill-opacity:1;fill-rule:nonzero;stroke:none"
         id="path150"
         inkscape:connector-curvature="0" /><path
         d="m 29.4072,16.5581 h -9.101 c -0.143,0 -0.26,0.117 -0.26,0.261 v 3.796 c 0,0.144 0.117,0.261 0.26,0.261 h 9.101 c 0.145,0 0.261,-0.117 0.261,-0.261 v -3.796 c 0,-0.144 -0.116,-0.261 -0.261,-0.261"
         style="fill:#ffffff;fill-opacity:1;fill-rule:nonzero;stroke:none"
         id="path154"
         inkscape:connector-curvature="0" /><path
         inkscape:connector-curvature="0"
         id="path156"
         style="fill:#003058;fill-opacity:1;fill-rule:nonzero;stroke:none"
         d="m 24.736,18.513 h -3.611 v 0.409 h 3.611 z" /><path
         d="m 26.4287,18.7173 c 0,-0.193 -0.157,-0.35 -0.351,-0.35 -0.193,0 -0.349,0.157 -0.349,0.35 0,0.193 0.156,0.35 0.349,0.35 0.194,0 0.351,-0.157 0.351,-0.35"
         style="fill:#003058;fill-opacity:1;fill-rule:nonzero;stroke:none"
         id="path160"
         inkscape:connector-curvature="0" /><path
         d="m 27.5088,18.7173 c 0,-0.193 -0.156,-0.35 -0.35,-0.35 -0.193,0 -0.35,0.157 -0.35,0.35 0,0.193 0.157,0.35 0.35,0.35 0.194,0 0.35,-0.157 0.35,-0.35"
         style="fill:#003058;fill-opacity:1;fill-rule:nonzero;stroke:none"
         id="path164"
         inkscape:connector-curvature="0" /><path
         d="m 28.5898,18.7173 c 0,-0.193 -0.157,-0.35 -0.351,-0.35 -0.193,0 -0.349,0.157 -0.349,0.35 0,0.193 0.156,0.35 0.349,0.35 0.194,0 0.351,-0.157 0.351,-0.35"
         style="fill:#003058;fill-opacity:1;fill-rule:nonzero;stroke:none"
         id="path168"
         inkscape:connector-curvature="0" /><path
         d="m 29.4072,11.2363 h -9.101 c -0.143,0 -0.26,0.117 -0.26,0.261 v 3.797 c 0,0.144 0.117,0.26 0.26,0.26 h 9.101 c 0.145,0 0.261,-0.116 0.261,-0.26 v -3.797 c 0,-0.144 -0.116,-0.261 -0.261,-0.261"
         style="fill:#ffffff;fill-opacity:1;fill-rule:nonzero;stroke:none"
         id="path172"
         inkscape:connector-curvature="0" /><path
         inkscape:connector-curvature="0"
         id="path174"
         style="fill:#003058;fill-opacity:1;fill-rule:nonzero;stroke:none"
         d="m 24.736,13.191 h -3.611 v 0.408 h 3.611 z" /><path
         d="m 26.4287,13.3955 c 0,-0.193 -0.157,-0.35 -0.351,-0.35 -0.193,0 -0.349,0.157 -0.349,0.35 0,0.193 0.156,0.351 0.349,0.351 0.194,0 0.351,-0.158 0.351,-0.351"
         style="fill:#003058;fill-opacity:1;fill-rule:nonzero;stroke:none"
         id="path178"
         inkscape:connector-curvature="0" /><path
         d="m 27.5088,13.3955 c 0,-0.193 -0.156,-0.35 -0.35,-0.35 -0.193,0 -0.35,0.157 -0.35,0.35 0,0.193 0.157,0.351 0.35,0.351 0.194,0 0.35,-0.158 0.35,-0.351"
         style="fill:#003058;fill-opacity:1;fill-rule:nonzero;stroke:none"
         id="path182"
         inkscape:connector-curvature="0" /><path
         d="m 28.5898,13.3955 c 0,-0.193 -0.157,-0.35 -0.351,-0.35 -0.193,0 -0.349,0.157 -0.349,0.35 0,0.193 0.156,0.351 0.349,0.351 0.194,0 0.351,-0.158 0.351,-0.351"
         style="fill:#003058;fill-opacity:1;fill-rule:nonzero;stroke:none"
         id="path186"
         inkscape:connector-curvature="0" /></g><g
       id="g1248"
       transform="matrix(0.79324441,0,0,0.79324441,-0.69190714,-2.288909)"><g
         transform="translate(16,22.1846)"
         id="g188"><path
           inkscape:connector-curvature="0"
           id="path190"
           style="fill:#003058;fill-opacity:1;fill-rule:nonzero;stroke:none"
           d="M 0,0 C 1.811,0 3.279,-1.468 3.279,-3.279 3.279,-5.09 1.811,-6.558 0,-6.558 c -1.811,0 -3.279,1.468 -3.279,3.279 C -3.279,-1.468 -1.811,0 0,0" /></g><g
         transform="translate(16.0923,19.7749)"
         id="g192"><path
           inkscape:connector-curvature="0"
           id="path194"
           style="fill:#37b34a;fill-opacity:1;fill-rule:nonzero;stroke:none"
           d="M 0,0 H -2.573 V -1.739 H 0 V -3.153 L 2.389,-0.87 0,1.414 Z" /></g></g><g
       transform="translate(-14.228825,22.46307)"
       id="g1287" /><g
       transform="matrix(0.81355383,0,0,0.81355383,-1.0164542,-2.2508479)"
       id="g1200"><g
         transform="translate(2.5874,6.0498)"
         id="g20"><path
           inkscape:connector-curvature="0"
           id="path22"
           style="fill:#003058;fill-opacity:1;fill-rule:nonzero;stroke:none"
           d="M 0,0 C 0.179,0 0.316,0.04 0.411,0.12 0.505,0.2 0.552,0.327 0.552,0.503 0.552,0.679 0.51,0.808 0.425,0.89 0.341,0.971 0.212,1.012 0.039,1.012 H -0.679 V 0 Z M -1.338,1.559 H 0.171 C 0.523,1.559 0.786,1.465 0.96,1.28 1.134,1.095 1.222,0.836 1.222,0.503 1.222,0.291 1.167,0.109 1.058,-0.043 0.949,-0.196 0.795,-0.308 0.596,-0.376 0.645,-0.418 0.685,-0.463 0.716,-0.511 0.747,-0.558 0.78,-0.623 0.816,-0.708 L 1.197,-1.587 H 0.513 l -0.371,0.845 c -0.033,0.075 -0.069,0.126 -0.11,0.154 -0.041,0.027 -0.105,0.041 -0.193,0.041 h -0.518 v -1.04 h -0.659 z" /></g><g
         transform="translate(5.5742,4.9463)"
         id="g24"><path
           inkscape:connector-curvature="0"
           id="path26"
           style="fill:#37b34a;fill-opacity:1;fill-rule:nonzero;stroke:none"
           d="m 0,0 c 0.09,0.032 0.18,0.086 0.271,0.161 l 0.22,1.056 c -0.104,0.12 -0.254,0.18 -0.449,0.18 -0.404,0 -0.658,-0.249 -0.762,-0.748 -0.027,-0.12 -0.04,-0.217 -0.04,-0.293 0,-0.14 0.038,-0.242 0.113,-0.307 0.075,-0.066 0.192,-0.098 0.352,-0.098 0.107,0 0.205,0.016 0.295,0.049 m -1.194,-0.324 c -0.157,0.137 -0.234,0.345 -0.234,0.622 0,0.124 0.012,0.244 0.039,0.361 0.088,0.407 0.248,0.713 0.481,0.916 0.233,0.203 0.526,0.305 0.881,0.305 0.26,0 0.469,-0.058 0.626,-0.176 L 0.833,2.809 H 1.492 L 0.794,-0.483 H 0.227 l 0.005,0.214 c -0.121,-0.087 -0.246,-0.153 -0.376,-0.198 -0.13,-0.044 -0.275,-0.065 -0.435,-0.065 -0.254,0 -0.459,0.069 -0.615,0.208" /></g><g
         transform="translate(7.9556,7.7207)"
         id="g28"><path
           inkscape:connector-curvature="0"
           id="path30"
           style="fill:#37b34a;fill-opacity:1;fill-rule:nonzero;stroke:none"
           d="M 0,0 H 0.718 L 0.61,-0.518 h -0.717 z m -0.249,-1.432 h -0.347 l 0.161,0.49 H 0.513 L 0.024,-3.258 h -0.659 z" /></g><g
         transform="translate(9.0981,6.2705)"
         id="g32"><path
           inkscape:connector-curvature="0"
           id="path34"
           style="fill:#37b34a;fill-opacity:1;fill-rule:nonzero;stroke:none"
           d="m 0,0 h -0.322 l 0.107,0.508 h 0.322 l 0.05,0.234 c 0.051,0.254 0.157,0.454 0.317,0.601 0.159,0.146 0.382,0.219 0.669,0.219 0.195,0 0.363,-0.031 0.503,-0.092 L 1.548,1.016 C 1.458,1.051 1.364,1.068 1.27,1.068 1.13,1.068 1.026,1.044 0.958,0.993 0.889,0.943 0.842,0.855 0.816,0.731 L 0.767,0.508 H 1.353 L 1.216,0 H 0.659 L 0.278,-1.808 h -0.659 z" /></g><g
         transform="translate(10.6562,6.2705)"
         id="g36"><path
           inkscape:connector-curvature="0"
           id="path38"
           style="fill:#37b34a;fill-opacity:1;fill-rule:nonzero;stroke:none"
           d="m 0,0 h -0.322 l 0.107,0.508 h 0.323 l 0.049,0.234 c 0.051,0.254 0.157,0.454 0.317,0.601 0.159,0.146 0.383,0.219 0.669,0.219 0.195,0 0.363,-0.031 0.503,-0.092 L 1.548,1.016 C 1.458,1.051 1.365,1.068 1.271,1.068 1.13,1.068 1.026,1.044 0.958,0.993 0.889,0.943 0.842,0.855 0.816,0.731 L 0.767,0.508 H 1.354 L 1.216,0 H 0.66 L 0.279,-1.808 h -0.66 z" /></g><g
         transform="translate(14.0508,4.9463)"
         id="g40"><path
           inkscape:connector-curvature="0"
           id="path42"
           style="fill:#003058;fill-opacity:1;fill-rule:nonzero;stroke:none"
           d="m 0,0 c 0.169,0 0.292,0.035 0.369,0.105 0.076,0.07 0.115,0.189 0.115,0.359 0,0.143 -0.041,0.248 -0.12,0.315 C 0.284,0.846 0.148,0.88 -0.044,0.88 H -0.835 V 0 Z m -0.024,1.357 c 0.296,0 0.444,0.134 0.444,0.402 0,0.142 -0.037,0.248 -0.109,0.314 C 0.237,2.14 0.109,2.174 -0.073,2.174 H -0.835 V 1.357 Z m -1.471,1.305 h 1.593 c 0.313,0 0.547,-0.073 0.703,-0.22 C 0.958,2.296 1.036,2.086 1.036,1.812 1.036,1.648 1.004,1.511 0.94,1.395 0.877,1.279 0.788,1.19 0.674,1.129 0.831,1.079 0.949,1 1.03,0.892 1.112,0.782 1.153,0.63 1.153,0.435 1.153,0.132 1.067,-0.097 0.896,-0.251 0.725,-0.406 0.479,-0.483 0.156,-0.483 h -1.651 z" /></g><g
         transform="translate(17.3379,5.7275)"
         id="g44"><path
           inkscape:connector-curvature="0"
           id="path46"
           style="fill:#003058;fill-opacity:1;fill-rule:nonzero;stroke:none"
           d="M 0,0 -0.483,1.265 -0.962,0 Z m -0.84,1.881 h 0.723 L 1.08,-1.265 H 0.396 L 0.098,-0.508 H -1.06 l -0.293,-0.757 h -0.689 z" /></g><g
         transform="translate(18.9844,4.8359)"
         id="g48"><path
           inkscape:connector-curvature="0"
           id="path50"
           style="fill:#003058;fill-opacity:1;fill-rule:nonzero;stroke:none"
           d="m 0,0 c -0.284,0.282 -0.425,0.672 -0.425,1.171 0,0.527 0.137,0.933 0.412,1.221 0.276,0.286 0.68,0.429 1.214,0.429 0.339,0 0.652,-0.051 0.938,-0.156 V 2.089 C 1.862,2.202 1.565,2.26 1.25,2.26 0.895,2.26 0.639,2.171 0.48,1.993 0.323,1.815 0.244,1.541 0.244,1.171 0.244,0.821 0.328,0.562 0.495,0.392 0.663,0.221 0.918,0.135 1.26,0.135 c 0.319,0 0.613,0.055 0.884,0.166 V -0.28 C 1.854,-0.375 1.541,-0.422 1.206,-0.422 0.686,-0.422 0.283,-0.281 0,0" /></g><g
         transform="translate(21.6357,7.6084)"
         id="g52"><path
           inkscape:connector-curvature="0"
           id="path54"
           style="fill:#003058;fill-opacity:1;fill-rule:nonzero;stroke:none"
           d="M 0,0 H 0.659 V -1.334 L 1.871,0 H 2.628 L 1.49,-1.274 2.687,-3.146 H 1.983 L 1.08,-1.694 0.659,-2.149 V -3.146 H 0 Z" /></g><g
         transform="translate(25.1797,4.7314)"
         id="g56"><path
           inkscape:connector-curvature="0"
           id="path58"
           style="fill:#003058;fill-opacity:1;fill-rule:nonzero;stroke:none"
           d="m 0,0 c -0.249,0.212 -0.374,0.517 -0.374,0.913 v 1.964 h 0.66 V 0.962 c 0,-0.237 0.064,-0.417 0.193,-0.537 0.128,-0.12 0.313,-0.181 0.554,-0.181 0.241,0 0.425,0.061 0.552,0.181 0.127,0.12 0.19,0.3 0.19,0.537 v 1.915 h 0.66 V 0.913 C 2.435,0.519 2.311,0.216 2.064,0.002 1.816,-0.211 1.473,-0.317 1.033,-0.317 0.594,-0.317 0.249,-0.212 0,0" /></g><g
         transform="translate(29.5146,5.9717)"
         id="g60"><path
           inkscape:connector-curvature="0"
           id="path62"
           style="fill:#003058;fill-opacity:1;fill-rule:nonzero;stroke:none"
           d="M 0,0 C 0.186,0 0.327,0.049 0.425,0.146 0.522,0.244 0.571,0.38 0.571,0.553 0.571,0.734 0.526,0.874 0.435,0.97 0.344,1.065 0.207,1.113 0.024,1.113 H -0.659 V 0 Z m -1.318,1.637 h 1.474 c 0.356,0 0.624,-0.1 0.806,-0.298 C 1.145,1.14 1.235,0.878 1.235,0.553 1.235,0.341 1.19,0.153 1.102,-0.01 1.012,-0.173 0.884,-0.299 0.718,-0.388 0.552,-0.478 0.358,-0.522 0.137,-0.522 h -0.796 v -0.987 h -0.659 z" /></g></g></g></svg>